<?xml version="1.0" encoding="UTF-8"?>
<svg width="800" height="60" viewBox="0 0 800 60" xmlns="http://www.w3.org/2000/svg">
  <defs>
    <style>
      .ornament { fill: none; stroke: #2c1810; stroke-width: 2; stroke-linecap: round; stroke-linejoin: round; }
      .accent { fill: #d4af37; opacity: 0.3; }
    </style>
  </defs>
  
  <!-- Left Corner Celtic Knot -->
  <g transform="translate(10, 30)">
    <path class="ornament" d="M 0 0 Q 10 -10, 20 0 Q 10 10, 0 0 M 20 0 Q 30 10, 40 0 Q 30 -10, 20 0"/>
    <circle cx="20" cy="0" r="4" class="accent"/>
  </g>
  
  <!-- Left Flourish -->
  <path class="ornament" d="M 60 30 Q 100 10, 140 30 Q 100 50, 60 30"/>
  <path class="ornament" d="M 80 30 Q 100 20, 120 30"/>
  
  <!-- Center Crown -->
  <g transform="translate(400, 15)">
    <path class="ornament" d="M -30 20 L -30 30 L 30 30 L 30 20 
                              M -25 20 L -20 0 L -15 20
                              M -10 20 L 0 -5 L 10 20
                              M 15 20 L 20 0 L 25 20"/>
    <circle cx="-20" cy="-2" r="3" class="accent"/>
    <circle cx="0" cy="-7" r="4" class="accent"/>
    <circle cx="20" cy="-2" r="3" class="accent"/>
  </g>
  
  <!-- Right Flourish (mirror of left) -->
  <path class="ornament" d="M 740 30 Q 700 10, 660 30 Q 700 50, 740 30"/>
  <path class="ornament" d="M 720 30 Q 700 20, 680 30"/>
  
  <!-- Right Corner Celtic Knot (mirror of left) -->
  <g transform="translate(790, 30) scale(-1, 1)">
    <path class="ornament" d="M 0 0 Q 10 -10, 20 0 Q 10 10, 0 0 M 20 0 Q 30 10, 40 0 Q 30 -10, 20 0"/>
    <circle cx="20" cy="0" r="4" class="accent"/>
  </g>
  
  <!-- Bottom line -->
  <line x1="150" y1="30" x2="350" y2="30" class="ornament" stroke-dasharray="5,5" opacity="0.5"/>
  <line x1="450" y1="30" x2="650" y2="30" class="ornament" stroke-dasharray="5,5" opacity="0.5"/>
</svg>
